<?xml version="1.0" standalone="no"?>
<!DOCTYPE svg PUBLIC "-//W3C//DTD SVG 20010904//EN"
 "http://www.w3.org/TR/2001/REC-SVG-20010904/DTD/svg10.dtd">
<svg version="1.0" xmlns="http://www.w3.org/2000/svg"
 width="740.000000pt" height="589.000000pt" viewBox="0 0 740.000000 589.000000"
 preserveAspectRatio="xMidYMid meet">

<g transform="translate(0.000000,589.000000) scale(0.100000,-0.100000)"
fill="#000000" stroke="none">
<path d="M0 2945 l0 -2945 3690 0 3690 0 0 2945 0 2945 -3690 0 -3690 0 0
-2945z m4556 -55 c24 -124 44 -239 44 -256 0 -17 -10 -44 -22 -59 -38 -49 -69
-55 -283 -55 -107 0 -195 3 -195 8 0 4 43 50 95 102 85 85 110 119 88 120 -5
0 -23 13 -42 29 l-35 29 28 62 c16 34 35 101 43 149 26 149 -10 313 -97 444
-49 73 -48 97 2 36 136 -166 174 -421 93 -622 l-23 -58 48 -37 c27 -20 49 -41
49 -46 1 -4 -33 -43 -74 -85 -41 -43 -75 -81 -75 -85 0 -4 72 -6 161 -4 155 3
161 4 180 27 10 13 19 36 19 53 0 16 -21 138 -46 271 l-45 242 6 260 c3 143 9
274 13 290 4 17 11 -109 15 -280 l8 -310 45 -225z m-367 374 c16 -46 26 -188
17 -238 -11 -56 -28 -44 -24 17 l3 52 -57 3 c-56 3 -58 2 -58 -23 0 -14 -4
-25 -10 -25 -5 0 -10 11 -10 25 0 22 -4 25 -37 25 -21 0 -49 4 -63 8 -19 5
-12 8 35 12 l60 5 5 55 6 55 8 -40 c4 -22 8 -47 9 -55 2 -10 16 -16 47 -18 70
-4 74 3 60 87 -7 43 -18 75 -26 78 -8 3 -11 9 -8 15 11 17 29 2 43 -38z
m-1095 -308 c12 -63 77 -176 140 -244 33 -36 101 -92 151 -124 l89 -58 -316 0
-316 0 -30 25 c-17 14 -33 39 -37 55 -7 31 30 217 46 234 12 13 12 6 -6 -94
-20 -116 -19 -137 10 -165 l24 -25 246 0 c135 0 245 4 245 8 0 5 -20 23 -45
41 -94 68 -180 194 -210 308 -17 67 -18 73 -6 73 5 0 12 -15 15 -34z m1071
-66 c-14 -27 -35 -41 -35 -23 0 7 41 53 47 53 2 0 -3 -13 -12 -30z m-553 -130
l58 0 1 38 0 37 23 -50 c13 -27 19 -51 14 -53 -10 -5 -11 -112 0 -112 4 0 18
7 30 16 21 14 23 14 32 -12 6 -15 8 -30 4 -33 -3 -3 -51 -6 -107 -5 -80 0
-114 5 -158 22 -60 24 -160 89 -166 109 -8 24 45 45 115 47 l67 1 -2 45 -2 45
16 -47 17 -48 58 0z m509 19 l71 -52 -68 -68 c-38 -38 -71 -69 -74 -69 -6 1
-83 107 -99 137 -10 19 -8 24 10 33 18 10 28 5 79 -39 l59 -51 28 25 28 25
-60 55 c-33 30 -57 54 -52 55 4 0 39 -23 78 -51z m-207 -138 c3 -5 -1 -12 -10
-15 -20 -8 -29 -1 -19 13 8 13 22 14 29 2z m-1576 -387 c21 -14 22 -22 22
-162 0 -128 3 -151 20 -179 41 -68 145 -59 182 17 15 28 18 62 18 177 0 135 1
143 21 154 29 15 66 -3 75 -35 3 -14 4 -89 2 -168 -3 -135 -5 -146 -31 -190
-65 -110 -213 -137 -311 -56 -68 56 -76 85 -76 272 0 147 2 166 18 175 24 14
34 13 60 -5z m480 0 c22 -15 22 -19 22 -239 0 -238 -3 -255 -50 -255 -47 0
-50 17 -50 255 0 220 0 224 22 239 12 9 25 16 28 16 3 0 16 -7 28 -16z m631
-1 c17 -15 21 -31 23 -98 l3 -80 44 -3 c55 -4 100 14 112 45 5 13 9 46 9 73 0
71 31 97 78 64 19 -13 22 -24 22 -80 0 -36 -7 -81 -15 -100 -14 -35 -14 -37
10 -66 33 -38 37 -57 33 -153 -3 -77 -4 -80 -32 -90 -44 -15 -66 19 -66 101 0
89 -17 104 -122 104 l-78 0 0 -87 c0 -66 -4 -91 -17 -105 -20 -22 -46 -23 -67
-2 -14 13 -16 49 -16 239 0 190 2 226 16 239 20 21 37 20 63 -1z m900 0 c17
-15 21 -31 23 -98 l3 -80 95 0 95 0 5 83 c4 68 9 86 24 98 24 17 37 18 59 1
16 -11 17 -35 15 -247 l-3 -235 -27 -9 c-22 -8 -32 -6 -48 9 -17 16 -20 30
-20 107 l0 88 -100 0 -100 0 0 -88 c0 -77 -3 -91 -20 -107 -16 -15 -26 -17
-48 -9 l-27 9 -3 232 c-2 200 0 233 14 247 20 21 37 20 63 -1z m-2304 -12 c46
-21 99 -71 123 -115 23 -44 23 -169 -1 -222 l-19 -41 26 -26 c29 -29 31 -39
16 -68 -15 -26 -67 -25 -97 3 -21 20 -25 20 -65 7 -171 -57 -338 61 -338 238
1 98 56 184 145 224 54 25 157 25 210 0z m1212 0 c45 -21 60 -49 43 -81 -13
-24 -42 -26 -100 -5 -57 20 -113 5 -157 -41 -79 -84 -39 -213 77 -244 30 -8
48 -7 85 6 52 17 89 13 99 -12 29 -76 -142 -128 -255 -77 -117 53 -175 181
-137 305 15 51 82 126 133 149 54 25 156 25 212 0z m863 -1 c63 -32 78 -78 35
-106 -23 -15 -27 -15 -62 6 -65 39 -143 26 -143 -24 0 -27 20 -39 90 -56 76
-18 111 -34 138 -63 55 -58 29 -162 -50 -207 -85 -47 -209 -24 -272 50 -31 37
-31 39 -10 68 21 30 48 28 92 -7 46 -35 80 -44 121 -30 67 23 57 72 -17 85
-69 13 -141 45 -167 75 -20 24 -25 41 -25 83 0 59 20 94 74 127 43 26 143 26
196 -1z m1001 -15 c95 -67 136 -173 105 -278 -55 -190 -296 -245 -430 -97 -33
37 -66 119 -66 165 0 45 31 123 65 162 55 65 104 85 202 81 72 -3 86 -7 124
-33z m474 12 c84 -47 109 -165 51 -241 -39 -51 -61 -60 -156 -66 l-85 -5 -3
-66 c-3 -81 -25 -109 -70 -93 l-27 9 -3 229 c-2 160 1 233 9 242 9 10 41 14
128 14 101 0 121 -3 156 -23z"/>
<path d="M3365 2730 c-7 -11 69 -64 86 -58 17 6 -39 68 -61 68 -10 0 -21 -4
-25 -10z"/>
<path d="M3476 2699 c33 -35 104 -75 104 -59 0 6 -9 29 -20 50 -19 38 -23 40
-67 40 l-47 0 30 -31z"/>
<path d="M3570 2725 c0 -9 32 -58 54 -82 33 -38 46 -29 46 32 l0 55 -50 0
c-27 0 -50 -2 -50 -5z"/>
<path d="M1884 2151 c-101 -46 -124 -169 -45 -245 46 -44 145 -57 134 -18 -7
29 20 54 62 55 35 2 40 5 48 34 34 116 -90 224 -199 174z"/>
<path d="M4948 2160 c-69 -21 -108 -73 -108 -144 0 -88 59 -149 146 -149 113
0 185 126 127 223 -32 55 -108 88 -165 70z"/>
<path d="M5400 2095 l0 -65 69 0 c73 0 93 10 106 51 5 14 0 31 -12 48 -18 23
-28 26 -92 29 l-71 3 0 -66z"/>
</g>
</svg>
